<svg width="90" height="90" viewBox="0 0 90 90" fill="none" xmlns="http://www.w3.org/2000/svg">
<path d="M2.37653 88.5L40.6529 8.18697L49.9005 2.18898L88.0798 82.2984L78.5184 88.5H2.37653Z" fill="#F9C944" stroke="#333333" stroke-width="3" stroke-linejoin="round"/>
<path d="M13.4078 81.3409L50.5124 3.48653L87.617 81.3409H13.4078Z" fill="white" stroke="#333333" stroke-width="3" stroke-linejoin="round"/>
<path d="M55.4997 45.5692C55.4997 47.2501 56.8803 48.6384 58.6151 48.6384C60.3499 48.6384 61.7305 47.2501 61.7305 45.5692C61.7305 43.8883 60.3499 42.5 58.6151 42.5C56.8803 42.5 55.4997 43.8883 55.4997 45.5692Z" stroke="#333333" stroke-width="3"/>
<path d="M40.4997 45.5692C40.4997 47.2501 41.8803 48.6384 43.6151 48.6384C45.3499 48.6384 46.7305 47.2501 46.7305 45.5692C46.7305 43.8883 45.3499 42.5 43.6151 42.5C41.8803 42.5 40.4997 43.8883 40.4997 45.5692Z" stroke="#333333" stroke-width="3"/>
<path d="M52.3268 71.5L38.5 56L52.3268 58.5L63 56L52.3268 71.5Z" stroke="#333333" stroke-width="3" stroke-linejoin="round"/>
<path d="M2.125 88.4673L14.4363 80.7969" stroke="#333333" stroke-width="3"/>
</svg>
