<svg width="90" height="90" viewBox="0 0 90 90" fill="none" xmlns="http://www.w3.org/2000/svg">
<path d="M20.283 13.972C20.4506 13.8402 20.5948 13.7292 20.713 13.6395C25.9809 13.7419 32.3199 15.4831 38.949 18.4597C45.7643 21.5198 52.7887 25.8418 59.1228 30.8671C65.46 35.8948 71.0645 41.5935 75.0722 47.3871C78.9648 53.0145 81.2708 58.6139 81.4142 63.7102C81.2795 63.8815 81.1014 64.1053 80.8819 64.3752C80.3222 65.0638 79.4937 66.0525 78.428 67.2413C76.2947 69.6209 73.2199 72.7917 69.4547 75.9588C61.8736 82.3355 51.7261 88.4999 40.9551 88.4999C19.1646 88.4999 1.5 70.8353 1.5 49.0449C1.5 38.1938 6.35252 29.2867 11.2894 23.0376C13.7525 19.9197 16.2173 17.489 18.0637 15.84C18.9862 15.0163 19.752 14.3897 20.283 13.972Z" fill="#F9C944" stroke="#333333" stroke-width="3"/>
<circle cx="49.0449" cy="40.9551" r="39.4551" fill="white" stroke="#333333" stroke-width="3"/>
<path d="M62.0562 31.9233C62.0562 33.6326 63.46 35.0439 65.2234 35.0439C66.9869 35.0439 68.3906 33.6326 68.3906 31.9233C68.3906 30.214 66.9869 28.8027 65.2234 28.8027C63.46 28.8027 62.0562 30.214 62.0562 31.9233Z" stroke="#333333" stroke-width="3"/>
<path d="M28.8033 31.9233C28.8033 33.6326 30.207 35.0439 31.9705 35.0439C33.7339 35.0439 35.1377 33.6326 35.1377 31.9233C35.1377 30.214 33.7339 28.8027 31.9705 28.8027C30.207 28.8027 28.8033 30.214 28.8033 31.9233Z" stroke="#333333" stroke-width="3"/>
<path d="M39 40.5H59L50 65L39 40.5Z" stroke="#333333" stroke-width="3" stroke-linejoin="round"/>
</svg>
