<svg width="207" height="253" viewBox="0 0 207 253" fill="none" xmlns="http://www.w3.org/2000/svg">
<path d="M14.8154 89.7057L55.731 48.8086" stroke="#333333" stroke-width="1.3742" stroke-miterlimit="10" stroke-linecap="round" stroke-linejoin="round"/>
<path d="M2.59375 121.575L87.6134 36.5938" stroke="#333333" stroke-width="1.3742" stroke-miterlimit="10" stroke-linecap="round" stroke-linejoin="round"/>
<path d="M1 142.82L108.869 35" stroke="#333333" stroke-width="1.3742" stroke-miterlimit="10" stroke-linecap="round" stroke-linejoin="round"/>
<path d="M2.0625 161.941L127.998 36.0625" stroke="#333333" stroke-width="1.3742" stroke-miterlimit="10" stroke-linecap="round" stroke-linejoin="round"/>
<path d="M143.939 39.7793L5.78223 177.874" stroke="#333333" stroke-width="1.3742" stroke-miterlimit="10" stroke-linecap="round" stroke-linejoin="round"/>
<path d="M11.627 192.216L157.754 45.623" stroke="#333333" stroke-width="1.3742" stroke-miterlimit="10" stroke-linecap="round" stroke-linejoin="round"/>
<path d="M18.5352 204.431L170.508 53.0586" stroke="#333333" stroke-width="1.3742" stroke-miterlimit="10" stroke-linecap="round" stroke-linejoin="round"/>
<path d="M27.5684 215.585L181.666 61.5566" stroke="#333333" stroke-width="1.3742" stroke-miterlimit="10" stroke-linecap="round" stroke-linejoin="round"/>
<path d="M37.665 225.677L191.763 71.6484" stroke="#333333" stroke-width="1.3742" stroke-miterlimit="10" stroke-linecap="round" stroke-linejoin="round"/>
<path d="M200.264 82.8027L48.8232 234.707" stroke="#333333" stroke-width="1.3742" stroke-miterlimit="10" stroke-linecap="round" stroke-linejoin="round"/>
<path d="M207.704 95.5488L61.0449 241.61" stroke="#333333" stroke-width="1.3742" stroke-miterlimit="10" stroke-linecap="round" stroke-linejoin="round"/>
<path d="M75.3926 247.454L213.549 109.359" stroke="#333333" stroke-width="1.3742" stroke-miterlimit="10" stroke-linecap="round" stroke-linejoin="round"/>
<path d="M217.268 125.293L91.333 251.171" stroke="#333333" stroke-width="1.3742" stroke-miterlimit="10" stroke-linecap="round" stroke-linejoin="round"/>
<path d="M218.331 144.414L110.463 252.234" stroke="#333333" stroke-width="1.3742" stroke-miterlimit="10" stroke-linecap="round" stroke-linejoin="round"/>
<path d="M216.737 165.658L131.718 250.639" stroke="#333333" stroke-width="1.3742" stroke-miterlimit="10" stroke-linecap="round" stroke-linejoin="round"/>
<path d="M204.515 197.527L163.6 238.424" stroke="#333333" stroke-width="1.3742" stroke-miterlimit="10" stroke-linecap="round" stroke-linejoin="round"/>
<path d="M139.096 11.0915L129 1" stroke="#F9C944" stroke-width="1.25" stroke-miterlimit="10" stroke-linecap="round" stroke-linejoin="round"/>
<path d="M160.882 1L150.786 11.0915" stroke="#F9C944" stroke-width="1.25" stroke-miterlimit="10" stroke-linecap="round" stroke-linejoin="round"/>
<path d="M150.786 22.7773L160.882 32.8689" stroke="#F9C944" stroke-width="1.25" stroke-miterlimit="10" stroke-linecap="round" stroke-linejoin="round"/>
<path d="M139.096 22.7773L129 32.8689" stroke="#F9C944" stroke-width="1.25" stroke-miterlimit="10" stroke-linecap="round" stroke-linejoin="round"/>
<path d="M185.772 143.121L166.111 124" stroke="#333333" stroke-width="2.25" stroke-miterlimit="10" stroke-linecap="round" stroke-linejoin="round"/>
</svg>
