<svg width="84" height="330" viewBox="0 0 84 330" fill="none" xmlns="http://www.w3.org/2000/svg">
<path d="M64.5298 195.254C64.5298 208.532 53.9023 208.532 53.9023 221.811C53.9023 235.089 64.5298 235.089 64.5298 248.367C64.5298 261.645 53.9023 261.645 53.9023 274.924C53.9023 288.202 64.5298 288.202 64.5298 301.48C64.5298 314.759 53.9023 314.759 53.9023 328.037" stroke="#333333" stroke-width="2.25" stroke-miterlimit="10" stroke-linecap="round" stroke-linejoin="round"/>
<path d="M68.0527 64.0005L41 91.041L68.0528 118.082L95.1056 91.0411L68.0527 64.0005Z" stroke="#F9C944" stroke-width="2.25" stroke-miterlimit="10" stroke-linecap="round" stroke-linejoin="round"/>
<path d="M2 2C17.9412 2 17.9411 17.934 34.4137 17.934C50.3549 17.934 50.3549 2 66.8274 2C83.3 2 82.7686 17.934 99.2411 17.934" stroke="#F9C944" stroke-width="2.25" stroke-miterlimit="10" stroke-linecap="round" stroke-linejoin="round"/>
</svg>
