<svg width="40" height="40" viewBox="0 0 40 40" fill="none" xmlns="http://www.w3.org/2000/svg">
<path d="M22.3499 20.001L29.5166 12.851C29.8304 12.5371 30.0067 12.1115 30.0067 11.6676C30.0067 11.2238 29.8304 10.7981 29.5166 10.4843C29.2027 10.1705 28.7771 9.99414 28.3332 9.99414C27.8894 9.99414 27.4637 10.1705 27.1499 10.4843L19.9999 17.651L12.8499 10.4843C12.5361 10.1705 12.1104 9.99414 11.6666 9.99414C11.2227 9.99414 10.7971 10.1705 10.4832 10.4843C10.1694 10.7981 9.99308 11.2238 9.99308 11.6676C9.99308 12.1115 10.1694 12.5371 10.4832 12.851L17.6499 20.001L10.4832 27.151C10.327 27.3059 10.203 27.4902 10.1184 27.6933C10.0338 27.8964 9.99023 28.1143 9.99023 28.3343C9.99023 28.5543 10.0338 28.7722 10.1184 28.9753C10.203 29.1784 10.327 29.3627 10.4832 29.5176C10.6382 29.6738 10.8225 29.7978 11.0256 29.8824C11.2287 29.9671 11.4465 30.0106 11.6666 30.0106C11.8866 30.0106 12.1044 29.9671 12.3075 29.8824C12.5106 29.7978 12.695 29.6738 12.8499 29.5176L19.9999 22.351L27.1499 29.5176C27.3048 29.6738 27.4892 29.7978 27.6923 29.8824C27.8954 29.9671 28.1132 30.0106 28.3332 30.0106C28.5533 30.0106 28.7711 29.9671 28.9742 29.8824C29.1773 29.7978 29.3616 29.6738 29.5166 29.5176C29.6728 29.3627 29.7968 29.1784 29.8814 28.9753C29.966 28.7722 30.0096 28.5543 30.0096 28.3343C30.0096 28.1143 29.966 27.8964 29.8814 27.6933C29.7968 27.4902 29.6728 27.3059 29.5166 27.151L22.3499 20.001Z" fill="#333333"/>
</svg>
