<svg width="1090" height="325" viewBox="0 0 1090 325" fill="none" xmlns="http://www.w3.org/2000/svg">
<path d="M547.783 165.916C537.568 165.916 528.545 170.887 522.934 178.496H509.68V70.8759H400.281V56.7086C407.2 51.0603 411.618 42.4713 411.618 32.8319C411.618 15.7938 397.78 2 380.739 2C363.698 2 349.859 15.8172 349.859 32.8319C349.859 43.0314 354.838 52.0406 362.459 57.6422V70.8759H255V178.496H268.254C273.888 170.864 282.911 165.916 293.103 165.916C310.167 165.916 323.982 179.733 323.982 196.748C323.982 213.762 310.144 227.58 293.103 227.58C283.448 227.58 274.846 223.168 269.189 216.26H255V322.619H509.68V216.26H523.869C529.526 223.168 538.129 227.58 547.783 227.58C564.847 227.58 578.662 213.762 578.662 196.748C578.662 179.733 564.824 165.916 547.783 165.916V165.916Z" fill="white" stroke="#333333" stroke-width="3" stroke-miterlimit="10"/>
<path d="M1056.78 165.916C1046.57 165.916 1037.54 170.887 1031.93 178.496H1018.68V70.8759H909.281V56.7086C916.2 51.0603 920.618 42.4713 920.618 32.8319C920.618 15.7938 906.78 2 889.739 2C872.698 2 858.859 15.8172 858.859 32.8319C858.859 43.0314 863.838 52.0406 871.459 57.6422V70.8759H764V178.496H777.254C782.888 170.864 791.911 165.916 802.103 165.916C819.167 165.916 832.982 179.733 832.982 196.748C832.982 213.762 819.144 227.58 802.103 227.58C792.448 227.58 783.846 223.168 778.189 216.26H764V322.619H1018.68V216.26H1032.87C1038.53 223.168 1047.13 227.58 1056.78 227.58C1073.85 227.58 1087.66 213.762 1087.66 196.748C1087.66 179.733 1073.82 165.916 1056.78 165.916V165.916Z" fill="white" stroke="#333333" stroke-width="3" stroke-miterlimit="10"/>
<path d="M802.783 165.916C792.568 165.916 783.545 170.887 777.934 178.496H764.68V70.8759H655.281V56.7086C662.2 51.0603 666.618 42.4713 666.618 32.8319C666.618 15.7938 652.78 2 635.739 2C618.698 2 604.859 15.8172 604.859 32.8319C604.859 43.0314 609.838 52.0406 617.459 57.6422V70.8759H510V178.496H523.254C528.888 170.864 537.911 165.916 548.103 165.916C565.167 165.916 578.982 179.733 578.982 196.748C578.982 213.762 565.144 227.58 548.103 227.58C538.448 227.58 529.846 223.168 524.189 216.26H510V322.619H764.68V216.26H778.869C784.526 223.168 793.129 227.58 802.783 227.58C819.847 227.58 833.662 213.762 833.662 196.748C833.662 179.733 819.824 165.916 802.783 165.916V165.916Z" fill="white" stroke="#333333" stroke-width="3" stroke-miterlimit="10"/>
<path d="M294.783 165.916C284.568 165.916 275.545 170.887 269.934 178.496H256.68V70.8759H147.281V56.7086C154.2 51.0603 158.618 42.4713 158.618 32.8319C158.618 15.7938 144.78 2 127.739 2C110.698 2 96.8593 15.8172 96.8593 32.8319C96.8593 43.0314 101.838 52.0406 109.459 57.6422V70.8759H2V178.496H15.2541C20.8877 170.864 29.9108 165.916 40.1027 165.916C57.1671 165.916 70.9822 179.733 70.9822 196.748C70.9822 213.762 57.1437 227.58 40.1027 227.58C30.4484 227.58 21.8461 223.168 16.1892 216.26H2V322.619H256.68V216.26H270.869C276.526 223.168 285.129 227.58 294.783 227.58C311.847 227.58 325.662 213.762 325.662 196.748C325.662 179.733 311.824 165.916 294.783 165.916V165.916Z" fill="white" stroke="#333333" stroke-width="3" stroke-miterlimit="10" stroke-linecap="round"/>
<path d="M118.92 198.168L121.8 209.208C130.248 206.04 140.808 202.008 150.6 198.168L148.584 187.992C137.736 191.928 126.504 195.96 118.92 198.168ZM120.168 167.736V178.296H149.256V167.736H120.168ZM130.632 149.592V227.448C130.632 228.792 130.152 229.08 129 229.08C127.848 229.176 124.488 229.176 121.032 228.984C122.376 232.152 123.72 236.856 124.008 239.736C130.248 239.736 134.376 239.352 137.256 237.528C140.232 235.8 141.192 232.824 141.192 227.448V149.592H130.632ZM163.272 150.552V192.504C163.272 208.728 161.16 222.36 144.072 231.192C146.568 233.016 150.504 236.856 152.232 239.352C171.336 228.792 173.832 211.8 173.832 192.6V150.552H163.272ZM179.976 150.552V223.224C179.976 235.32 182.472 238.776 191.112 238.776C192.84 238.776 197.736 238.776 199.56 238.776C207.048 238.776 209.832 233.688 210.888 220.44C207.816 219.768 203.688 217.848 201.192 215.928C200.904 225.72 200.424 228.504 198.6 228.504C197.544 228.504 193.992 228.504 193.128 228.504C191.208 228.504 190.824 227.832 190.824 223.32V150.552H179.976ZM148.104 166.296C151.752 172.44 155.88 180.696 157.608 186.072L166.536 180.696C164.712 175.512 160.584 167.64 156.648 161.592L148.104 166.296ZM186.696 197.496C192.84 202.968 200.136 210.936 203.592 215.736L210.888 207.768C207.24 202.968 199.944 195.864 193.608 190.68L186.696 197.496ZM145.032 206.712L150.888 216.312C155.88 212.568 161.64 208.056 166.824 203.736L163.08 195C156.36 199.512 149.544 204.024 145.032 206.712ZM198.696 160.44C196.584 167.064 192.456 175.992 189.192 181.656L197.064 186.072C200.616 180.888 204.84 172.728 208.968 165.624L198.696 160.44Z" fill="#333333"/>
<path d="M382.632 159.192H387.72V165.336H382.632V159.192ZM374.472 151.992V172.632H396.168V151.992H374.472ZM407.784 159.192H412.968V165.336H407.784V159.192ZM399.624 151.992V172.632H421.416V151.992H399.624ZM421.608 177.624L422.856 188.376L462.6 183.384L461.352 172.824L421.608 177.624ZM443.016 155.352C446.664 160.536 450.6 167.64 452.04 172.152L461.352 167.064C459.72 162.552 455.496 155.832 451.752 150.84L443.016 155.352ZM384.936 197.784H410.76V202.776H384.936V197.784ZM384.936 184.728H410.76V189.816H384.936V184.728ZM375.432 176.28V211.32H420.648V176.28H375.432ZM371.592 216.12V226.2H423.144V216.12H371.592ZM392.808 179.16V207.768H392.136V239.64H403.272V207.768H402.504V179.16H392.808ZM429 150.072C430.344 203.064 435.144 238.968 452.136 239.736C456.264 239.832 461.16 236.088 463.56 219.288C461.832 218.232 457.128 215.256 455.208 212.856C454.728 221.496 453.672 226.008 452.232 225.912C445.416 225.432 440.328 190.872 439.848 150.072H429ZM451.368 186.168C445.416 204.888 432.552 222.648 415.656 230.712C418.536 232.728 422.088 236.088 424.008 238.776C440.328 229.464 453.672 210.552 460.104 191.064L451.368 186.168Z" fill="#333333"/>
<path d="M638.376 185.592V196.152H660.552V185.592H638.376ZM656.136 185.592V187.32C655.944 205.944 655.56 212.664 654.408 214.2C653.64 215.16 652.776 215.352 651.432 215.352C649.896 215.352 646.632 215.352 643.176 214.968C644.904 217.848 646.152 222.36 646.344 225.72C650.856 225.816 654.984 225.816 657.576 225.432C660.36 224.952 662.28 224.088 664.2 221.688C666.408 218.712 666.888 210.168 667.272 189.816C667.272 188.472 667.368 185.592 667.368 185.592H656.136ZM685.032 155.544C690.408 158.616 697.224 163.32 700.392 166.68L707.784 158.904C704.328 155.736 697.224 151.32 691.944 148.536L685.032 155.544ZM696.36 180.216C689.736 202.488 676.872 219.864 658.44 229.752C660.84 232.056 665.064 236.856 666.792 239.256C685.8 227.544 699.912 208.056 707.976 183L696.36 180.216ZM639.048 163.896V175.224H713.064V163.896H639.048ZM631.368 163.896V192.024C631.368 204.6 630.696 221.4 623.304 232.92C625.992 234.264 631.176 238.488 633.096 240.792C641.832 227.832 643.464 206.52 643.464 192.12V163.896H631.368ZM670.344 149.592C670.632 193.368 678.408 238.968 699.336 238.968C708.36 238.968 712.2 234.648 714.024 216.792C710.952 215.64 706.824 212.952 704.232 210.264C703.656 222.36 702.504 227.256 700.296 227.256C690.6 227.256 681.768 188.76 682.44 149.592H670.344Z" fill="#333333"/>
<path d="M881.84 159.864V170.712H918.032V159.864H881.84ZM919.472 169.944V180.984H962.48V169.944H919.472ZM894.32 164.28V212.568H905.648V164.28H894.32ZM957.104 169.944V172.248C956.24 208.728 955.184 222.936 952.592 225.912C951.536 227.16 950.576 227.544 948.752 227.544C946.544 227.544 941.936 227.544 936.848 227.064C938.864 230.232 940.208 235.128 940.4 238.392C945.68 238.584 950.96 238.68 954.224 238.104C957.872 237.528 960.272 236.472 962.768 233.016C966.224 228.408 967.28 214.2 968.336 175.128C968.432 173.688 968.432 169.944 968.432 169.944H957.104ZM880.496 211.32L883.184 223.32C893.84 220.44 907.664 216.504 920.528 212.76L918.992 201.816C905.168 205.464 890.192 209.304 880.496 211.32ZM933.008 151.032C932.816 188.184 933.968 215.544 907.472 230.424C910.352 232.536 914 236.856 915.632 239.832C944.336 222.648 944.528 191.064 944.72 151.032H933.008Z" fill="#333333"/>
</svg>
