<svg width="246" height="236" viewBox="0 0 246 236" fill="none" xmlns="http://www.w3.org/2000/svg">
<path d="M220.912 120.609C213.274 120.609 206.527 124.207 202.333 129.712H192.422L192.422 51.8385L110.626 51.8385V41.5871C115.799 37.5 119.102 31.285 119.102 24.31C119.102 11.9812 108.755 2 96.014 2C83.2726 2 72.9256 11.9981 72.9256 24.31C72.9256 31.6903 76.6484 38.2094 82.3462 42.2626V51.8385L2 51.8385L2 129.712H11.91C16.1222 124.19 22.8687 120.609 30.4891 120.609C43.248 120.609 53.5775 130.607 53.5775 142.919C53.5775 155.231 43.2305 165.229 30.4891 165.229C23.2707 165.229 16.8388 162.037 12.6091 157.038H2L2 234L192.422 234L192.422 157.038L203.032 157.038C207.261 162.037 213.693 165.229 220.912 165.229C233.67 165.229 244 155.231 244 142.919C244 130.607 233.653 120.609 220.912 120.609V120.609Z" fill="white" stroke="#333333" stroke-width="3" stroke-miterlimit="10"/>
<path d="M53.5782 94.2994V96.9394H65.6742V94.2994H53.5782ZM52.6182 112.683V115.347L66.0582 115.347V112.683H52.6182ZM54.7302 108.003C55.3302 109.443 55.8822 111.387 56.0262 112.611L58.5942 111.915C58.4022 110.667 57.8022 108.771 57.1302 107.355L54.7302 108.003ZM61.6422 107.163C61.2342 109.083 60.3702 111.651 59.6502 113.283L62.0502 113.859C62.7942 112.323 63.7062 109.923 64.4742 107.763L61.6422 107.163ZM56.8902 101.283H62.2182V104.475H56.8902V101.283ZM54.2502 98.7634V106.995L65.0262 106.995V98.7634H54.2502ZM47.5782 97.5394V101.907C47.5782 105.459 47.1942 110.355 43.4982 113.715C44.0022 114.075 45.0582 115.107 45.4422 115.635C49.4982 111.963 50.2422 105.939 50.2422 101.955V97.5394H47.5782ZM45.9222 96.3874V98.9314H52.8822V96.3874H45.9222ZM43.6182 102.723L43.6182 105.291H53.0502V102.723H43.6182ZM49.5702 106.131L47.8662 107.667C48.7782 108.915 50.5542 111.603 51.3942 113.163L53.2662 110.787C52.7142 110.043 50.2902 106.875 49.5702 106.131ZM45.3942 93.3394C45.0822 96.0754 44.4582 98.8594 43.4262 100.635C44.0502 100.995 45.1542 101.739 45.6102 102.147C46.7382 100.107 47.5542 96.9154 47.9862 93.8194L45.3942 93.3394ZM84.2022 94.5874V97.1554H89.6742V94.5874H84.2022ZM83.8662 100.707V103.323H90.1782V100.707H83.8662ZM73.8582 97.5634V99.7954H83.8662V97.5634H73.8582ZM74.2662 108.939V111.027L83.3382 111.027V108.939H74.2662ZM77.6262 95.2594V113.307H79.9062V94.8754L77.6262 95.2594ZM76.1142 105.171H81.3702V106.251H76.1142V105.171ZM76.1142 102.555H81.3702V103.611H76.1142V102.555ZM74.1222 100.875V107.931H83.4582V100.875H74.1222ZM73.6182 112.467L73.8822 114.699C76.5462 114.531 80.1942 114.291 83.6502 114.051L83.6742 111.963C79.9782 112.155 76.1862 112.371 73.6182 112.467ZM82.2342 93.5314C80.0742 94.0354 76.7142 94.3954 73.8102 94.5634C74.0502 95.1154 74.3382 96.0034 74.4102 96.5554C77.3862 96.4834 80.9862 96.1714 83.5782 95.5954L82.2342 93.5314ZM85.7622 102.123V112.827C85.7622 113.091 85.6662 113.163 85.4022 113.163C85.1382 113.163 84.3222 113.163 83.5302 113.139C83.8422 113.907 84.1782 115.083 84.2502 115.851C85.6662 115.851 86.6982 115.803 87.4902 115.347C88.2822 114.915 88.4502 114.147 88.4502 112.851V102.123H85.7622ZM71.2422 93.2914C70.4262 94.8034 68.7462 96.7234 67.2582 97.8994C67.6902 98.4274 68.3622 99.5074 68.6982 100.107C70.5222 98.6194 72.5142 96.3634 73.8342 94.2754L71.2422 93.2914ZM71.6262 98.3554C70.5462 100.755 68.7702 103.179 67.0902 104.787C67.5462 105.411 68.3382 106.803 68.6022 107.403C70.5942 105.387 72.7542 102.171 74.1222 99.2434L71.6262 98.3554ZM69.9942 103.611V115.851H72.5862V101.019V100.995L69.9942 103.611ZM92.2182 97.8034V100.443H98.7462V97.8034H92.2182ZM94.6422 93.3154V115.851H96.8982V93.3154H94.6422ZM94.4262 99.6034C93.9462 102.507 92.8422 106.083 91.5942 108.003C91.9542 108.747 92.4822 110.019 92.7222 110.835C94.0662 108.459 95.1942 103.947 95.7222 100.227L94.4262 99.6034ZM96.7782 101.355L95.8182 102.411C96.3942 103.443 97.6662 105.939 98.1222 107.187L99.3702 105.243C98.9862 104.619 97.2582 101.955 96.7782 101.355ZM102.538 98.6914V100.875H109.642V98.6914H102.538ZM101.794 103.995H103.378V106.227H101.794V103.995ZM99.7302 102.075V108.147H105.562V102.075H99.7302ZM108.73 103.995H110.41V106.227H108.73V103.995ZM106.642 102.075V108.147H112.618V102.075H106.642ZM101.626 108.411C100.906 110.859 99.3462 112.875 97.2342 114.099C97.7862 114.531 98.7222 115.467 99.1062 115.947C101.362 114.387 103.186 111.939 104.122 108.939L101.626 108.411ZM101.698 111.747C102.658 112.371 103.858 113.331 104.434 113.979L105.874 112.083C105.274 111.459 104.026 110.619 103.066 110.043L101.698 111.747ZM108.298 108.387C107.842 110.835 106.666 112.875 104.794 114.075C105.322 114.483 106.258 115.443 106.618 115.899C108.778 114.363 110.194 111.891 110.842 108.747L108.298 108.387ZM107.866 111.891C109.378 112.947 111.394 114.507 112.354 115.539L114.058 113.571C113.074 112.587 110.986 111.123 109.474 110.163L107.866 111.891ZM105.106 93.0034C103.714 95.2354 101.098 97.5394 98.2902 98.9314C98.8662 99.3874 99.7542 100.395 100.162 100.947C103.186 99.2914 106.09 96.8674 107.866 93.9874L105.106 93.0034ZM106.402 93.7954L104.386 95.1394C106.45 97.3474 109.906 99.7234 113.074 101.091C113.242 100.323 113.746 99.0514 114.178 98.3554C111.346 97.4434 108.082 95.5714 106.402 93.7954ZM128.722 100.227H134.026V101.787L128.722 101.787V100.227ZM128.722 103.923H134.026V105.483H128.722V103.923ZM128.722 96.5794H134.026V98.0914H128.722V96.5794ZM126.106 94.2754V107.787H136.786V94.2754H126.106ZM131.602 107.067V112.539C131.602 114.939 132.034 115.731 134.17 115.731C134.554 115.731 135.346 115.731 135.754 115.731C137.41 115.731 138.106 114.867 138.346 111.579C137.626 111.387 136.474 110.955 135.97 110.499C135.898 112.947 135.826 113.235 135.442 113.235C135.298 113.235 134.77 113.235 134.626 113.235C134.314 113.235 134.266 113.163 134.266 112.515V107.067H131.602ZM127.69 107.547C127.426 110.667 126.85 112.659 122.89 113.787C123.418 114.267 124.09 115.251 124.33 115.875C129.034 114.363 129.946 111.627 130.258 107.547H127.69ZM115.882 97.3234V99.9154H123.226V97.3234H115.882ZM119.026 105.483V115.827H121.834V102.123L119.026 105.483ZM121.714 102.987L120.106 104.403C121.018 105.411 122.794 107.571 123.61 108.771L125.386 106.395C124.81 105.819 122.458 103.539 121.714 102.987ZM122.362 97.3234V97.8514C121.162 101.139 118.234 104.475 115.186 106.155C115.546 106.707 116.098 108.291 116.266 109.107C119.722 106.947 123.226 102.795 124.954 98.3314L123.442 97.2274L122.938 97.3234H122.362ZM118.234 94.7314C119.026 95.7154 119.89 97.0834 120.274 97.9474L122.554 96.4354C122.146 95.5474 121.258 94.2994 120.418 93.3874L118.234 94.7314ZM144.85 102.027H156.634V105.051H144.85V102.027ZM142.45 100.251V106.803H159.202V100.251H142.45ZM146.578 97.5394V99.4114H155.05V97.5394H146.578ZM149.53 100.851V105.915H151.858V100.851H149.53ZM145.69 102.555C146.098 103.371 146.434 104.499 146.53 105.219L148.642 104.595C148.498 103.875 148.114 102.819 147.682 102.003L145.69 102.555ZM153.634 101.907C153.442 102.699 153.01 103.875 152.65 104.667L154.618 105.195C155.002 104.523 155.506 103.515 156.01 102.483L153.634 101.907ZM143.77 107.595V115.851H146.602V109.467H155.026V115.755H157.978V107.595H143.77ZM145.402 110.427V112.323H156.25V110.427H145.402ZM145.402 113.307V115.179H156.25V113.307H145.402ZM150.322 93.0994C148.138 95.8834 143.866 97.8994 139.426 98.9794C139.906 99.4834 140.65 100.635 140.938 101.211C145.618 99.7954 150.202 97.4194 152.866 94.0354L150.322 93.0994ZM152.218 94.2034L150.082 95.0674C152.554 97.7554 156.658 99.9634 160.69 100.995C161.098 100.347 161.914 99.3154 162.514 98.8114C158.506 97.9954 154.354 96.2674 152.218 94.2034ZM177.25 96.0274V102.003H180.034V96.0274H177.25ZM174.418 104.691V113.499C174.418 113.763 174.346 113.835 174.058 113.859C173.794 113.859 172.858 113.859 172.042 113.811C172.33 114.411 172.642 115.251 172.738 115.851C174.178 115.851 175.21 115.827 175.954 115.515C176.698 115.203 176.914 114.651 176.914 113.571V104.691H174.418ZM181.378 93.2914C181.138 93.9874 180.61 94.9714 180.202 95.6674L182.17 96.2674C182.674 95.6674 183.274 94.8514 183.898 93.9154L181.378 93.2914ZM173.914 94.0114C174.442 94.7314 174.994 95.7154 175.186 96.3394L177.322 95.5714C177.082 94.9234 176.482 93.9634 175.93 93.2914L173.914 94.0114ZM181.57 104.667C182.458 105.339 183.49 106.299 183.946 107.019L185.674 105.747C185.17 105.051 184.114 104.115 183.226 103.515L181.57 104.667ZM171.274 110.379L171.538 112.587C173.65 112.347 176.314 112.035 178.906 111.723L178.858 109.659C176.05 109.971 173.242 110.211 171.274 110.379ZM177.49 103.371C176.074 103.827 173.674 104.163 171.634 104.355C171.85 104.835 172.114 105.579 172.186 106.035C174.37 105.915 177.034 105.579 178.978 105.051L177.49 103.371ZM172.21 95.5234V97.4434H185.338V95.5234H172.21ZM172.978 98.3554V100.131H184.618V98.3554H172.978ZM171.466 101.115V103.179H185.842V101.115H171.466ZM171.418 106.875V108.963H185.818V106.875H171.418ZM178.93 103.659C179.05 110.763 180.058 115.971 183.658 115.971C185.146 115.971 185.914 115.107 186.25 112.803C185.746 112.563 185.05 112.227 184.594 111.771C184.498 113.115 184.282 113.739 183.898 113.739C182.314 113.739 181.258 110.043 181.33 103.659H178.93ZM183.058 109.227C181.762 111.363 179.314 113.091 176.962 114.051C177.418 114.435 178.042 115.131 178.33 115.563C180.826 114.483 183.49 112.539 185.002 110.187L183.058 109.227ZM164.434 100.683V102.843H170.866V100.683H164.434ZM164.434 103.947V106.131H170.866V103.947H164.434ZM163.594 97.3234V99.6034H171.442V97.3234H163.594ZM165.49 107.283V109.491H168.73V112.299H165.49V114.531H170.818V107.283H165.49ZM164.362 107.283V115.539H166.378V107.283H164.362ZM165.754 94.1554C166.282 95.2114 166.81 96.6274 167.002 97.5154L169.162 96.6274C168.946 95.7874 168.346 94.4194 167.794 93.4114L165.754 94.1554ZM79.075 153.539L81.259 152.627C79.243 149.123 78.331 145.067 78.331 141.131C78.331 137.219 79.243 133.163 81.259 129.659L79.075 128.723C76.795 132.419 75.475 136.355 75.475 141.131C75.475 145.931 76.795 149.843 79.075 153.539ZM90.0173 149.027C94.0973 149.027 96.5213 146.555 96.5213 143.651C96.5213 141.107 95.1053 139.715 92.9693 138.827L90.6413 137.867C89.1293 137.267 87.8573 136.787 87.8573 135.515C87.8573 134.363 88.8413 133.667 90.4013 133.667C91.8653 133.667 93.0413 134.195 94.1933 135.131L95.9693 132.899C94.5293 131.435 92.4653 130.619 90.4013 130.619C86.8253 130.619 84.2573 132.851 84.2573 135.755C84.2573 138.323 86.0813 139.787 87.8573 140.507L90.2333 141.515C91.8173 142.187 92.8973 142.619 92.8973 143.939C92.8973 145.163 91.9373 145.955 90.0893 145.955C88.5293 145.955 86.8253 145.187 85.5773 144.011L83.5373 146.459C85.2653 148.115 87.6173 149.027 90.0173 149.027ZM99.4019 153.851H102.93V149.771L102.81 147.587C103.818 148.523 104.97 149.027 106.122 149.027C109.074 149.027 111.834 146.387 111.834 141.779C111.834 137.627 109.866 134.939 106.554 134.939C105.114 134.939 103.722 135.683 102.618 136.667H102.546L102.258 135.275H99.4019L99.4019 153.851ZM105.354 146.123C104.634 146.123 103.77 145.883 102.93 145.139L102.93 139.211C103.842 138.275 104.658 137.819 105.546 137.819C107.418 137.819 108.21 139.235 108.21 141.827C108.21 144.731 106.962 146.123 105.354 146.123ZM114.847 148.691H118.375V140.699C119.119 138.755 120.391 138.035 121.423 138.035C121.999 138.035 122.359 138.131 122.839 138.251L123.439 135.227C123.031 135.035 122.599 134.939 121.879 134.939C120.487 134.939 119.023 135.875 118.063 137.651H117.991L117.703 135.275H114.847L114.847 148.691ZM125.324 148.691H128.852L128.852 135.275H125.324L125.324 148.691ZM127.076 133.091C128.3 133.091 129.14 132.323 129.14 131.147C129.14 129.995 128.3 129.251 127.076 129.251C125.852 129.251 125.036 129.995 125.036 131.147C125.036 132.323 125.852 133.091 127.076 133.091ZM132.613 148.691H136.141L136.141 139.451C137.125 138.491 137.821 137.963 138.925 137.963C140.221 137.963 140.821 138.659 140.821 140.771V148.691H144.349V140.315C144.349 136.955 143.077 134.939 140.197 134.939C138.373 134.939 136.981 135.899 135.829 137.051H135.757L135.469 135.275H132.613L132.613 148.691ZM152.884 149.027C154.084 149.027 155.02 148.763 155.74 148.523L155.164 145.955C154.78 146.099 154.276 146.267 153.82 146.267C152.644 146.267 151.996 145.547 151.996 144.011V138.035H155.332V135.275H151.996V131.627H149.068L148.684 135.275L146.596 135.419V138.035H148.468V144.011C148.468 147.011 149.692 149.027 152.884 149.027ZM69.8656 183.691H73.4176V176.995H76.0336C79.7536 176.995 82.7056 175.267 82.7056 171.307C82.7056 167.227 79.7536 165.931 76.0336 165.931H69.8656V183.691ZM73.4176 174.187V168.763H75.6976C78.0016 168.763 79.2496 169.411 79.2496 171.307C79.2496 173.203 78.0016 174.187 75.6976 174.187H73.4176ZM79.5136 183.691H83.4736L77.8576 173.851L75.3856 176.083L79.5136 183.691ZM91.3946 184.027C93.0506 184.027 94.7306 183.475 96.0506 182.563L94.8746 180.379C93.8906 180.979 92.9306 181.315 91.8506 181.315C89.8586 181.315 88.4186 180.187 88.1066 177.979H96.4106C96.4826 177.643 96.5546 177.019 96.5546 176.347C96.5546 172.627 94.6586 169.939 90.9386 169.939C87.7706 169.939 84.6986 172.627 84.6986 176.995C84.6986 181.435 87.6266 184.027 91.3946 184.027ZM88.0586 175.627C88.3466 173.659 89.5946 172.651 91.0106 172.651C92.7386 172.651 93.5546 173.803 93.5546 175.627H88.0586ZM102.274 183.691H106.354L110.842 170.275H107.434L105.466 176.971C105.106 178.291 104.746 179.659 104.386 181.027H104.266C103.906 179.659 103.546 178.291 103.186 176.971L101.242 170.275H97.6655L102.274 183.691ZM113.078 183.691H116.606V170.275H113.078V183.691ZM114.83 168.091C116.054 168.091 116.894 167.323 116.894 166.147C116.894 164.995 116.054 164.251 114.83 164.251C113.606 164.251 112.79 164.995 112.79 166.147C112.79 167.323 113.606 168.091 114.83 168.091ZM126.223 184.027C127.879 184.027 129.559 183.475 130.879 182.563L129.703 180.379C128.719 180.979 127.759 181.315 126.679 181.315C124.687 181.315 123.247 180.187 122.935 177.979L131.239 177.979C131.311 177.643 131.383 177.019 131.383 176.347C131.383 172.627 129.487 169.939 125.767 169.939C122.599 169.939 119.527 172.627 119.527 176.995C119.527 181.435 122.455 184.027 126.223 184.027ZM122.887 175.627C123.175 173.659 124.423 172.651 125.839 172.651C127.567 172.651 128.383 173.803 128.383 175.627H122.887ZM136.286 183.691H140.318L141.686 177.859C141.974 176.587 142.19 175.363 142.43 173.923H142.55C142.814 175.363 143.03 176.587 143.318 177.835L144.734 183.691H148.886L152.222 170.275H148.934L147.494 176.899C147.23 178.219 147.062 179.491 146.822 180.811H146.702C146.414 179.491 146.15 178.219 145.838 176.899L144.158 170.275H141.038L139.406 176.899C139.07 178.195 138.83 179.491 138.59 180.811H138.47C138.23 179.491 138.062 178.219 137.822 176.899L136.334 170.275H132.83L136.286 183.691ZM156.332 188.539C158.588 184.843 159.908 180.931 159.908 176.131C159.908 171.355 158.588 167.419 156.332 163.723L154.124 164.659C156.14 168.163 157.076 172.219 157.076 176.131C157.076 180.067 156.14 184.123 154.124 187.627L156.332 188.539Z" fill="#333333"/>
</svg>
