<svg width="94" height="94" viewBox="0 0 94 94" fill="none" xmlns="http://www.w3.org/2000/svg">
<path d="M2.00042 91.998H82.8407L92 82.998H11.1597L2.00042 91.998Z" fill="#F9C944" stroke="#333333" stroke-width="3" stroke-miterlimit="10" stroke-linecap="round" stroke-linejoin="round"/>
<path d="M10.1822 2H92V82.9998H10.1822V2Z" fill="white" stroke="#333333" stroke-width="3" stroke-miterlimit="10" stroke-linecap="round" stroke-linejoin="round"/>
<path d="M2.00007 11.3759V92.0015L10.6748 82.8051L10.3655 2.02344L2.00007 11.3759Z" fill="#F9C944" stroke="#333333" stroke-width="3" stroke-miterlimit="10" stroke-linecap="round" stroke-linejoin="round"/>
<path d="M64.6531 29.4149C64.6531 31.0958 66.0336 32.4841 67.7684 32.4841C69.5032 32.4841 70.8838 31.0958 70.8838 29.4149C70.8838 27.734 69.5032 26.3457 67.7684 26.3457C66.0336 26.3457 64.6531 27.734 64.6531 29.4149Z" stroke="#333333" stroke-width="3"/>
<path d="M31.7693 29.4149C31.7693 31.0958 33.1498 32.4841 34.8846 32.4841C36.6195 32.4841 38 31.0958 38 29.4149C38 27.734 36.6195 26.3457 34.8846 26.3457C33.1498 26.3457 31.7693 27.734 31.7693 29.4149Z" stroke="#333333" stroke-width="3"/>
<path d="M32.5788 42.9609H68.9248L51.9057 64.5955L32.5788 42.9609Z" stroke="#333333" stroke-width="3" stroke-linejoin="round"/>
</svg>
