<svg width="1558" height="679" viewBox="0 0 1558 679" fill="none" xmlns="http://www.w3.org/2000/svg">
<path d="M744.222 406.523C771.581 388.43 795.55 365.126 812.039 336.989C847.665 276.231 844.11 198.698 812.509 144.527C774.234 78.8467 697.202 40.3624 614.32 50.4672C517.188 62.2986 457.25 150.261 434.695 235.281L452.905 250.411C466.842 170.815 531.107 79.6605 617.244 71.4314C689.865 64.4986 759.279 96.6085 793.33 155.006C821.409 203.161 825.983 271.845 794.364 325.814C779.654 350.887 760.72 368.678 736.308 384.729L744.251 406.62L744.222 406.523Z" fill="white" stroke="#333333" stroke-width="3" stroke-miterlimit="10"/>
<path d="M678.513 419.052L732.965 344.102L772.555 423.043L678.513 419.052Z" fill="white" stroke="#333333" stroke-width="3" stroke-miterlimit="10"/>
<path d="M399.223 613.526C478.235 558.176 542.958 469.328 525.186 367.153C508.495 271.462 438.609 198.582 350.711 177.691C278.303 160.522 188.724 182.254 131.806 242.166C105.388 269.901 87.0163 304.359 75.7288 340.859L103.347 342.42C113.314 310.002 127.123 282.868 150.658 258.134C201.332 205.066 280.945 187.296 345.307 202.544C423.359 221.034 483.519 287.67 500.33 370.875C520.263 469.568 438.369 571.503 352.512 613.526H2V636.218H1486.78V613.526H399.223Z" fill="white" stroke="#333333" stroke-width="3" stroke-miterlimit="10"/>
<path d="M1554.99 624.815L1466.97 574.027V675.722L1554.99 624.815Z" fill="white" stroke="#333333" stroke-width="3" stroke-miterlimit="10"/>
<path d="M83.414 423.584L144.655 342.3L43.6677 329.934L83.414 423.584Z" fill="white" stroke="#333333" stroke-width="3" stroke-miterlimit="10"/>
<path d="M274.836 362.144V365.664H290.964V362.144H274.836ZM273.556 386.656V390.208H291.476V386.656H273.556ZM276.372 380.416C277.172 382.336 277.908 384.928 278.1 386.56L281.524 385.632C281.268 383.968 280.468 381.44 279.572 379.552L276.372 380.416ZM285.588 379.296C285.044 381.856 283.892 385.28 282.932 387.456L286.132 388.224C287.124 386.176 288.34 382.976 289.364 380.096L285.588 379.296ZM279.252 371.456H286.356V375.712H279.252V371.456ZM275.732 368.096V379.072H290.1V368.096H275.732ZM266.836 366.464V372.288C266.836 377.024 266.324 383.552 261.396 388.032C262.068 388.512 263.476 389.888 263.988 390.592C269.396 385.696 270.388 377.664 270.388 372.352V366.464H266.836ZM264.628 364.928V368.32H273.908V364.928H264.628ZM261.556 373.376V376.8H274.132V373.376H261.556ZM269.492 377.92L267.22 379.968C268.436 381.632 270.804 385.216 271.924 387.296L274.42 384.128C273.684 383.136 270.452 378.912 269.492 377.92ZM263.924 360.864C263.508 364.512 262.676 368.224 261.3 370.592C262.132 371.072 263.604 372.064 264.212 372.608C265.716 369.888 266.804 365.632 267.38 361.504L263.924 360.864ZM315.668 362.528V365.952H322.964V362.528H315.668ZM315.22 370.688V374.176H323.636V370.688H315.22ZM301.876 366.496V369.472H315.22V366.496H301.876ZM302.42 381.664V384.448H314.516V381.664H302.42ZM306.9 363.424V387.488H309.94V362.912L306.9 363.424ZM304.884 376.64H311.892V378.08H304.884V376.64ZM304.884 373.152H311.892V374.56H304.884V373.152ZM302.228 370.912V380.32H314.676V370.912H302.228ZM301.556 386.368L301.908 389.344C305.46 389.12 310.324 388.8 314.932 388.48L314.964 385.696C310.036 385.952 304.98 386.24 301.556 386.368ZM313.044 361.12C310.164 361.792 305.684 362.272 301.812 362.496C302.132 363.232 302.516 364.416 302.612 365.152C306.58 365.056 311.38 364.64 314.836 363.872L313.044 361.12ZM317.748 372.576V386.848C317.748 387.2 317.62 387.296 317.268 387.296C316.916 387.296 315.828 387.296 314.772 387.264C315.188 388.288 315.636 389.856 315.732 390.88C317.62 390.88 318.996 390.816 320.052 390.208C321.108 389.632 321.332 388.608 321.332 386.88V372.576H317.748ZM298.388 360.8C297.3 362.816 295.06 365.376 293.076 366.944C293.652 367.648 294.548 369.088 294.996 369.888C297.428 367.904 300.084 364.896 301.844 362.112L298.388 360.8ZM298.9 367.552C297.46 370.752 295.092 373.984 292.852 376.128C293.46 376.96 294.516 378.816 294.868 379.616C297.524 376.928 300.404 372.64 302.228 368.736L298.9 367.552ZM296.724 374.56V390.88H300.18V371.104V371.072L296.724 374.56ZM253.375 434.448C258.815 434.448 262.047 431.152 262.047 427.28C262.047 423.888 260.159 422.032 257.311 420.848L254.207 419.568C252.191 418.768 250.495 418.128 250.495 416.432C250.495 414.896 251.807 413.968 253.887 413.968C255.839 413.968 257.407 414.672 258.943 415.92L261.311 412.944C259.391 410.992 256.639 409.904 253.887 409.904C249.119 409.904 245.695 412.88 245.695 416.752C245.695 420.176 248.127 422.128 250.495 423.088L253.663 424.432C255.775 425.328 257.215 425.904 257.215 427.664C257.215 429.296 255.935 430.352 253.471 430.352C251.391 430.352 249.119 429.328 247.455 427.76L244.735 431.024C247.039 433.232 250.175 434.448 253.375 434.448ZM265.887 440.88H270.591V435.44L270.431 432.528C271.775 433.776 273.311 434.448 274.847 434.448C278.783 434.448 282.463 430.928 282.463 424.784C282.463 419.248 279.839 415.664 275.423 415.664C273.503 415.664 271.647 416.656 270.175 417.968H270.079L269.695 416.112H265.887V440.88ZM273.823 430.576C272.863 430.576 271.711 430.256 270.591 429.264V421.36C271.807 420.112 272.895 419.504 274.079 419.504C276.575 419.504 277.631 421.392 277.631 424.848C277.631 428.72 275.967 430.576 273.823 430.576ZM286.481 434H291.185V423.344C292.177 420.752 293.873 419.792 295.249 419.792C296.017 419.792 296.497 419.92 297.137 420.08L297.937 416.048C297.393 415.792 296.817 415.664 295.857 415.664C294.001 415.664 292.049 416.912 290.769 419.28H290.673L290.289 416.112H286.481V434ZM300.45 434H305.154V416.112H300.45V434ZM302.786 413.2C304.418 413.2 305.538 412.176 305.538 410.608C305.538 409.072 304.418 408.08 302.786 408.08C301.154 408.08 300.066 409.072 300.066 410.608C300.066 412.176 301.154 413.2 302.786 413.2ZM310.169 434H314.873V421.68C316.185 420.4 317.113 419.696 318.585 419.696C320.313 419.696 321.113 420.624 321.113 423.44V434H325.817V422.832C325.817 418.352 324.121 415.664 320.281 415.664C317.849 415.664 315.993 416.944 314.457 418.48H314.361L313.977 416.112H310.169V434ZM337.197 434.448C338.797 434.448 340.045 434.096 341.005 433.776L340.237 430.352C339.725 430.544 339.053 430.768 338.445 430.768C336.877 430.768 336.013 429.808 336.013 427.76V419.792H340.461V416.112H336.013V411.248H332.109L331.597 416.112L328.813 416.304V419.792H331.309V427.76C331.309 431.76 332.941 434.448 337.197 434.448Z" fill="#333333"/>
</svg>
