<svg width="160" height="160" viewBox="0 0 160 160" fill="none" xmlns="http://www.w3.org/2000/svg">
<path d="M158 158H17.8761L2 142.4H142.124L158 158Z" fill="#AAAAAA" stroke="#717171" stroke-width="3" stroke-miterlimit="10" stroke-linecap="round" stroke-linejoin="round"/>
<path d="M143.818 2H2V142.4H143.818V2Z" fill="white" stroke="#717171" stroke-width="3" stroke-miterlimit="10" stroke-linecap="round" stroke-linejoin="round"/>
<path d="M158 18.2481V157.999L142.964 142.059L143.5 2.03711L158 18.2481Z" fill="#AAAAAA" stroke="#717171" stroke-width="3" stroke-miterlimit="10" stroke-linecap="round" stroke-linejoin="round"/>
<path d="M40 98.0293H106.953" stroke="#717171" stroke-width="3" stroke-miterlimit="10" stroke-linecap="round" stroke-linejoin="round"/>
<path d="M50.5 49.5196C50.5 53.0511 47.6041 55.9396 44 55.9396C40.3959 55.9396 37.5 53.0511 37.5 49.5196C37.5 45.9881 40.3959 43.0996 44 43.0996C47.6041 43.0996 50.5 45.9881 50.5 49.5196Z" stroke="#717171" stroke-width="3"/>
<path d="M107.5 49.5196C107.5 53.0511 104.604 55.9396 101 55.9396C97.3959 55.9396 94.5 53.0511 94.5 49.5196C94.5 45.9881 97.3959 43.0996 101 43.0996C104.604 43.0996 107.5 45.9881 107.5 49.5196Z" stroke="#717171" stroke-width="3"/>
</svg>
