<svg width="268" height="270" viewBox="0 0 268 270" fill="none" xmlns="http://www.w3.org/2000/svg">
<path d="M136.969 27.3782C136.969 35.7735 141.063 43.1891 147.328 47.7998V58.6926L58.7128 58.6926L58.7128 148.602H47.0474C42.3966 142.915 35.3243 139.284 27.3872 139.284C13.3579 139.284 2 150.657 2 164.662C2 178.667 13.3772 190.04 27.3872 190.04C35.7855 190.04 43.2038 185.948 47.8161 179.686H58.7128L58.7128 268H147.328V257.107C141.043 252.477 136.969 245.062 136.969 236.686C136.969 222.661 148.346 211.307 162.356 211.307C176.366 211.307 187.744 222.68 187.744 236.686C187.744 244.62 184.111 251.69 178.423 256.339V268L266 268L266 58.6926H178.423V47.0313C184.111 42.3822 187.744 35.3124 187.744 27.3782C187.744 13.3539 176.366 1.99999 162.356 1.99999C148.346 1.99999 136.969 13.3731 136.969 27.3782Z" fill="white" stroke="#333333" stroke-width="3" stroke-miterlimit="10"/>
<path d="M94.2138 120.136V122.656H105.926V120.136H94.2138ZM92.5338 130.36V132.88H109.91V130.36H92.5338ZM93.1578 115.72V118.288H110.03V115.72H93.1578ZM104.798 120.136V120.712C104.582 129.544 104.294 132.856 103.742 133.576C103.526 133.888 103.31 133.96 102.878 133.96C102.398 133.984 101.462 133.96 100.382 133.864C100.742 134.488 101.03 135.448 101.054 136.072C102.278 136.12 103.502 136.12 104.294 136.024C105.11 135.904 105.734 135.64 106.286 134.848C107.03 133.816 107.366 130.696 107.63 121.384C107.63 121.048 107.654 120.136 107.654 120.136H104.798ZM92.8458 120.136C92.4858 124.264 91.7178 129.568 91.0458 132.88H93.9978C94.5738 129.664 95.2698 124.384 95.7498 120.136H92.8458ZM93.9498 113.392C92.7258 116.368 90.6378 119.416 88.4298 121.264C89.1498 121.648 90.3978 122.464 90.9978 122.944C93.0858 120.856 95.3418 117.52 96.8298 114.232L93.9498 113.392ZM97.1178 123.616C98.4858 124.264 100.142 125.344 100.934 126.16L102.614 124.456C101.75 123.664 100.046 122.68 98.7018 122.08L97.1178 123.616ZM96.8058 128.584C98.1978 129.28 99.9018 130.408 100.694 131.248L102.374 129.544C101.486 128.728 99.7578 127.672 98.3658 127.048L96.8058 128.584ZM88.5738 125.176V127.744H93.6378V127.672H106.07V127.744H110.942V125.176H106.07V125.272H93.6378V125.176H88.5738ZM115.43 114.976V135.784H118.406V117.88H129.086V135.76H132.182V114.976H115.43ZM117.47 123.04V125.896H130.382V123.04H117.47ZM117.446 131.32V134.224H130.382V131.32H117.446ZM136.886 117.736V120.376H146.558V117.736H136.886ZM136.694 131.056L137.318 133.912C139.886 133.312 143.198 132.544 146.294 131.776L146.03 129.136C142.67 129.88 139.094 130.648 136.694 131.056ZM137.702 121.672C138.134 124.192 138.566 127.48 138.638 129.664L140.99 129.208C140.846 127 140.414 123.784 139.91 121.24L137.702 121.672ZM143.054 121.048C142.814 123.88 142.262 127.792 141.662 130.216L143.75 130.672C144.422 128.344 145.19 124.576 145.718 121.504L143.054 121.048ZM139.598 114.352C140.174 115.456 140.798 116.992 141.038 117.952L143.63 117.112C143.366 116.152 142.718 114.712 142.07 113.632L139.598 114.352ZM152.006 117.952V120.688H158.99V117.952H152.006ZM147.998 132.232V134.92H156.59V132.232H147.998ZM150.422 113.512V126.016H153.398V113.512H150.422ZM146.726 124.84V136.048H149.51V127.528H155.222V135.952H158.15V124.84H146.726ZM161.894 117.856V120.76H181.67V117.856H161.894ZM160.814 132.256V135.16H182.702V132.256H160.814ZM164.894 122.152C165.686 125.128 166.598 129.112 166.886 131.68L169.982 130.864C169.574 128.272 168.686 124.48 167.774 121.432L164.894 122.152ZM175.742 121.504C175.046 125.104 173.678 129.832 172.406 132.76L175.262 133.432C176.486 130.576 177.95 126.136 178.982 122.128L175.742 121.504ZM169.502 113.968C169.934 115.216 170.462 116.896 170.654 117.976L173.678 117.112C173.39 116.056 172.862 114.472 172.358 113.248L169.502 113.968ZM189.782 122.248H201.566V125.272H189.782V122.248ZM187.382 120.472V127.024H204.134V120.472H187.382ZM191.51 117.76V119.632H199.982V117.76H191.51ZM194.462 121.072V126.136H196.79V121.072H194.462ZM190.622 122.776C191.03 123.592 191.366 124.72 191.462 125.44L193.574 124.816C193.43 124.096 193.046 123.04 192.614 122.224L190.622 122.776ZM198.566 122.128C198.374 122.92 197.942 124.096 197.582 124.888L199.55 125.416C199.934 124.744 200.438 123.736 200.942 122.704L198.566 122.128ZM188.702 127.816V136.072H191.534V129.688H199.958V135.976H202.91V127.816H188.702ZM190.334 130.648V132.544H201.182V130.648H190.334ZM190.334 133.528V135.4H201.182V133.528H190.334ZM195.254 113.32C193.07 116.104 188.798 118.12 184.358 119.2C184.838 119.704 185.582 120.856 185.87 121.432C190.55 120.016 195.134 117.64 197.798 114.256L195.254 113.32ZM197.15 114.424L195.014 115.288C197.486 117.976 201.59 120.184 205.622 121.216C206.03 120.568 206.846 119.536 207.446 119.032C203.438 118.216 199.286 116.488 197.15 114.424ZM222.182 116.248V122.224L224.966 122.224V116.248L222.182 116.248ZM219.35 124.912V133.72C219.35 133.984 219.278 134.056 218.99 134.08C218.726 134.08 217.79 134.08 216.974 134.032C217.262 134.632 217.574 135.472 217.67 136.072C219.11 136.072 220.142 136.048 220.886 135.736C221.63 135.424 221.846 134.872 221.846 133.792V124.912H219.35ZM226.31 113.512C226.07 114.208 225.542 115.192 225.134 115.888L227.102 116.488C227.606 115.888 228.206 115.072 228.83 114.136L226.31 113.512ZM218.846 114.232C219.374 114.952 219.926 115.936 220.118 116.56L222.254 115.792C222.014 115.144 221.414 114.184 220.862 113.512L218.846 114.232ZM226.502 124.888C227.39 125.56 228.422 126.52 228.878 127.24L230.606 125.968C230.102 125.272 229.046 124.336 228.158 123.736L226.502 124.888ZM216.206 130.6L216.47 132.808C218.582 132.568 221.246 132.256 223.838 131.944L223.79 129.88C220.982 130.192 218.174 130.432 216.206 130.6ZM222.422 123.592C221.006 124.048 218.606 124.384 216.566 124.576C216.782 125.056 217.046 125.8 217.118 126.256C219.302 126.136 221.966 125.8 223.91 125.272L222.422 123.592ZM217.142 115.744V117.664L230.27 117.664V115.744L217.142 115.744ZM217.91 118.576V120.352L229.55 120.352V118.576L217.91 118.576ZM216.398 121.336V123.4H230.774V121.336L216.398 121.336ZM216.35 127.096V129.184H230.75V127.096H216.35ZM223.862 123.88C223.982 130.984 224.99 136.192 228.59 136.192C230.078 136.192 230.846 135.328 231.182 133.024C230.678 132.784 229.982 132.448 229.526 131.992C229.43 133.336 229.214 133.96 228.83 133.96C227.246 133.96 226.19 130.264 226.262 123.88H223.862ZM227.99 129.448C226.694 131.584 224.246 133.312 221.894 134.272C222.35 134.656 222.974 135.352 223.262 135.784C225.758 134.704 228.422 132.76 229.934 130.408L227.99 129.448ZM209.366 120.904V123.064H215.798V120.904H209.366ZM209.366 124.168V126.352H215.798V124.168H209.366ZM208.526 117.544V119.824H216.374V117.544H208.526ZM210.422 127.504V129.712H213.662V132.52H210.422V134.752H215.75V127.504H210.422ZM209.294 127.504V135.76H211.31V127.504H209.294ZM210.686 114.376C211.214 115.432 211.742 116.848 211.934 117.736L214.094 116.848C213.878 116.008 213.278 114.64 212.726 113.632L210.686 114.376ZM85.3465 173.76L87.5305 172.848C85.5145 169.344 84.6025 165.288 84.6025 161.352C84.6025 157.44 85.5145 153.384 87.5305 149.88L85.3465 148.944C83.0665 152.64 81.7465 156.576 81.7465 161.352C81.7465 166.152 83.0665 170.064 85.3465 173.76ZM90.9848 168.912H96.0488C101.281 168.912 104.617 165.936 104.617 159.96C104.617 153.96 101.281 151.152 95.8568 151.152H90.9848V168.912ZM94.5368 166.056V153.984H95.6168C98.9528 153.984 100.993 155.64 100.993 159.96C100.993 164.28 98.9528 166.056 95.6168 166.056H94.5368ZM111.118 169.248C112.654 169.248 113.998 168.504 115.174 167.496H115.27L115.534 168.912H118.414V161.088C118.414 157.176 116.662 155.16 113.254 155.16C111.118 155.16 109.222 155.952 107.638 156.912L108.91 159.264C110.134 158.52 111.358 157.992 112.606 157.992C114.262 157.992 114.814 158.976 114.886 160.296C109.486 160.896 107.158 162.408 107.158 165.264C107.158 167.568 108.718 169.248 111.118 169.248ZM112.27 166.488C111.238 166.488 110.518 166.032 110.518 165C110.518 163.776 111.598 162.888 114.886 162.48V165.192C114.022 166.032 113.278 166.488 112.27 166.488ZM122.009 168.912H125.537V155.496H122.009V168.912ZM123.761 153.312C124.985 153.312 125.825 152.544 125.825 151.368C125.825 150.216 124.985 149.472 123.761 149.472C122.537 149.472 121.721 150.216 121.721 151.368C121.721 152.544 122.537 153.312 123.761 153.312ZM132.61 169.248C133.45 169.248 134.002 169.104 134.41 168.96L133.978 166.344C133.738 166.392 133.642 166.392 133.522 166.392C133.186 166.392 132.826 166.128 132.826 165.288V149.784H129.298V165.144C129.298 167.64 130.138 169.248 132.61 169.248ZM138.021 174.312C141.045 174.312 142.485 172.488 143.661 169.344L148.437 155.496H145.053L143.181 161.712C142.869 162.984 142.533 164.256 142.245 165.528H142.125C141.717 164.232 141.381 162.936 140.973 161.712L138.861 155.496H135.285L140.517 168.672L140.301 169.464C139.893 170.664 139.125 171.528 137.781 171.528C137.445 171.528 137.085 171.408 136.845 171.336L136.197 174.048C136.701 174.216 137.253 174.312 138.021 174.312ZM161.679 169.248C165.759 169.248 168.183 166.776 168.183 163.872C168.183 161.328 166.767 159.936 164.631 159.048L162.303 158.088C160.791 157.488 159.519 157.008 159.519 155.736C159.519 154.584 160.503 153.888 162.063 153.888C163.527 153.888 164.703 154.416 165.855 155.352L167.631 153.12C166.191 151.656 164.127 150.84 162.063 150.84C158.487 150.84 155.919 153.072 155.919 155.976C155.919 158.544 157.743 160.008 159.519 160.728L161.895 161.736C163.479 162.408 164.559 162.84 164.559 164.16C164.559 165.384 163.599 166.176 161.751 166.176C160.191 166.176 158.487 165.408 157.239 164.232L155.199 166.68C156.927 168.336 159.279 169.248 161.679 169.248ZM176.752 169.248C178.24 169.248 179.896 168.744 181.168 167.64L179.776 165.312C179.032 165.912 178.12 166.392 177.136 166.392C175.216 166.392 173.824 164.736 173.824 162.216C173.824 159.672 175.192 158.04 177.28 158.04C178 158.04 178.648 158.328 179.32 158.904L180.976 156.648C179.992 155.784 178.744 155.16 177.064 155.16C173.416 155.16 170.224 157.752 170.224 162.216C170.224 166.656 173.056 169.248 176.752 169.248ZM183.72 168.912H187.248V160.92C187.992 158.976 189.264 158.256 190.296 158.256C190.872 158.256 191.232 158.352 191.712 158.472L192.312 155.448C191.904 155.256 191.472 155.16 190.752 155.16C189.36 155.16 187.896 156.096 186.936 157.872H186.864L186.576 155.496H183.72V168.912ZM198.205 169.248C200.029 169.248 201.301 168.36 202.477 166.992H202.549L202.813 168.912H205.693V155.496H202.189V164.544C201.277 165.744 200.557 166.224 199.453 166.224C198.133 166.224 197.557 165.504 197.557 163.44V155.496H194.029V163.872C194.029 167.256 195.301 169.248 198.205 169.248ZM209.478 168.912H213.006V159.672C213.918 158.664 214.806 158.184 215.55 158.184C216.846 158.184 217.446 158.88 217.446 160.992V168.912H220.974V159.672C221.934 158.664 222.774 158.184 223.542 158.184C224.838 158.184 225.414 158.88 225.414 160.992V168.912H228.942V160.536C228.942 157.176 227.646 155.16 224.79 155.16C223.038 155.16 221.742 156.216 220.494 157.488C219.87 156 218.742 155.16 216.798 155.16C215.07 155.16 213.822 156.12 212.694 157.272H212.622L212.334 155.496H209.478V168.912ZM234.147 173.76C236.403 170.064 237.723 166.152 237.723 161.352C237.723 156.576 236.403 152.64 234.147 148.944L231.939 149.88C233.955 153.384 234.891 157.44 234.891 161.352C234.891 165.288 233.955 169.344 231.939 172.848L234.147 173.76Z" fill="#333333"/>
</svg>
