<svg width="270" height="267" viewBox="0 0 270 267" fill="none" xmlns="http://www.w3.org/2000/svg">
<path d="M242.622 136.458C234.226 136.458 226.811 140.536 222.2 146.777H211.307V58.498L121.398 58.498V46.8768C127.085 42.2436 130.716 35.1981 130.716 27.291C130.716 13.3149 119.343 2 105.338 2C91.3327 2 79.9596 13.3341 79.9596 27.291C79.9596 35.6576 84.0516 43.0477 90.3145 47.6426V58.498L2 58.498L2 146.777H12.8928C17.5227 140.517 24.9383 136.458 33.3145 136.458C47.3387 136.458 58.6926 147.792 58.6926 161.749C58.6926 175.706 47.3195 187.04 33.3145 187.04C25.3802 187.04 18.3104 183.422 13.6613 177.755H2L2 265H211.307L211.307 177.755H222.969C227.618 183.422 234.688 187.04 242.622 187.04C256.646 187.04 268 175.706 268 161.749C268 147.792 256.627 136.458 242.622 136.458V136.458Z" fill="white" stroke="#333333" stroke-width="3" stroke-miterlimit="10"/>
<path d="M84.0098 78.2623V80.9023H96.1058V78.2623H84.0098ZM83.0498 96.6463V99.3103H96.4898V96.6463H83.0498ZM85.1618 91.9663C85.7618 93.4063 86.3138 95.3503 86.4578 96.5743L89.0258 95.8783C88.8338 94.6303 88.2338 92.7343 87.5618 91.3183L85.1618 91.9663ZM92.0738 91.1263C91.6658 93.0463 90.8018 95.6143 90.0818 97.2463L92.4818 97.8223C93.2258 96.2863 94.1378 93.8863 94.9058 91.7263L92.0738 91.1263ZM87.3218 85.2463H92.6498V88.4383H87.3218V85.2463ZM84.6818 82.7263V90.9583H95.4578V82.7263H84.6818ZM78.0098 81.5023V85.8703C78.0098 89.4223 77.6258 94.3183 73.9298 97.6783C74.4338 98.0383 75.4898 99.0703 75.8738 99.5983C79.9298 95.9263 80.6738 89.9023 80.6738 85.9183V81.5023H78.0098ZM76.3538 80.3503V82.8943H83.3138V80.3503H76.3538ZM74.0498 86.6863V89.2543H83.4818V86.6863H74.0498ZM80.0018 90.0943L78.2978 91.6303C79.2098 92.8783 80.9858 95.5663 81.8258 97.1263L83.6978 94.7503C83.1458 94.0063 80.7218 90.8383 80.0018 90.0943ZM75.8258 77.3023C75.5138 80.0383 74.8898 82.8223 73.8578 84.5983C74.4818 84.9583 75.5858 85.7023 76.0418 86.1103C77.1698 84.0703 77.9858 80.8783 78.4178 77.7823L75.8258 77.3023ZM114.634 78.5503V81.1183H120.106V78.5503H114.634ZM114.298 84.6703V87.2863H120.61V84.6703H114.298ZM104.29 81.5263V83.7583H114.298V81.5263H104.29ZM104.698 92.9023V94.9903H113.77V92.9023H104.698ZM108.058 79.2223V97.2703H110.338V78.8383L108.058 79.2223ZM106.546 89.1343H111.802V90.2143H106.546V89.1343ZM106.546 86.5183H111.802V87.5743H106.546V86.5183ZM104.554 84.8383V91.8943H113.89V84.8383H104.554ZM104.05 96.4303L104.314 98.6623C106.978 98.4943 110.626 98.2543 114.082 98.0143L114.106 95.9263C110.41 96.1183 106.618 96.3343 104.05 96.4303ZM112.666 77.4943C110.506 77.9983 107.146 78.3583 104.242 78.5263C104.482 79.0783 104.77 79.9663 104.842 80.5183C107.818 80.4463 111.418 80.1343 114.01 79.5583L112.666 77.4943ZM116.194 86.0863V96.7903C116.194 97.0543 116.098 97.1263 115.834 97.1263C115.57 97.1263 114.754 97.1263 113.962 97.1023C114.274 97.8703 114.61 99.0463 114.682 99.8143C116.098 99.8143 117.13 99.7663 117.922 99.3103C118.714 98.8783 118.882 98.1103 118.882 96.8143V86.0863H116.194ZM101.674 77.2543C100.858 78.7663 99.1778 80.6863 97.6898 81.8623C98.1218 82.3903 98.7938 83.4703 99.1298 84.0703C100.954 82.5823 102.946 80.3263 104.266 78.2383L101.674 77.2543ZM102.058 82.3183C100.978 84.7183 99.2018 87.1423 97.5218 88.7503C97.9778 89.3743 98.7698 90.7663 99.0338 91.3663C101.026 89.3503 103.186 86.1343 104.554 83.2063L102.058 82.3183ZM100.426 87.5743V99.8143H103.018V84.9823V84.9583L100.426 87.5743ZM126.658 85.6303V88.2943H139.714V85.6303H126.658ZM126.658 90.7663V93.4303H139.714V90.7663H126.658ZM126.658 95.9263V98.5903H139.714V95.9263H126.658ZM124.69 80.3983V99.7903H127.618V83.1583H139.066V99.7423H142.138V80.3983H124.69ZM131.506 77.2543C131.338 78.5023 130.93 80.1823 130.546 81.3823L133.186 81.8623C133.714 80.8063 134.41 79.2223 134.986 77.6143L131.506 77.2543ZM161.362 81.5743C158.434 84.9343 152.194 86.7103 145.738 87.4783C146.266 88.0783 147.154 89.3263 147.514 89.9983C153.874 88.9183 160.474 86.8783 164.098 82.8223L161.362 81.5743ZM150.202 87.3343V99.8143H152.986V89.4943H162.538V99.7183H165.442V87.3343H150.202ZM151.906 90.5503V92.5183H163.354V90.5503H151.906ZM151.906 93.6703V95.6143H163.354V93.6703H151.906ZM151.906 96.7903V98.9023H163.354V96.7903H151.906ZM150.994 78.5263C150.154 80.5663 148.618 82.6303 146.938 83.9263C147.634 84.3103 148.858 85.1023 149.41 85.5823C151.042 84.0943 152.794 81.6943 153.85 79.2943L150.994 78.5263ZM160.81 79.7023C162.682 81.3343 164.866 83.6863 165.778 85.2703L168.274 83.6863C167.242 82.0543 164.986 79.8463 163.09 78.2863L160.81 79.7023ZM155.674 77.3023V85.7743H158.53V77.3023H155.674ZM103.282 120.99H115.066V124.014H103.282V120.99ZM100.882 119.214V125.766H117.634V119.214H100.882ZM105.01 116.502V118.374H113.482V116.502H105.01ZM107.962 119.814V124.878H110.29V119.814H107.962ZM104.122 121.518C104.53 122.334 104.866 123.462 104.962 124.182L107.074 123.558C106.93 122.838 106.546 121.782 106.114 120.966L104.122 121.518ZM112.066 120.87C111.874 121.662 111.442 122.838 111.082 123.63L113.05 124.158C113.434 123.486 113.938 122.478 114.442 121.446L112.066 120.87ZM102.202 126.558V134.814H105.034V128.43H113.458V134.718H116.41V126.558H102.202ZM103.834 129.39V131.286H114.682V129.39H103.834ZM103.834 132.27V134.142H114.682V132.27H103.834ZM108.754 112.062C106.57 114.846 102.298 116.862 97.8578 117.942C98.3378 118.446 99.0818 119.598 99.3698 120.174C104.05 118.758 108.634 116.382 111.298 112.998L108.754 112.062ZM110.65 113.166L108.514 114.03C110.986 116.718 115.09 118.926 119.122 119.958C119.53 119.31 120.346 118.278 120.946 117.774C116.938 116.958 112.786 115.23 110.65 113.166ZM135.682 114.99V120.966H138.466V114.99H135.682ZM132.85 123.654V132.462C132.85 132.726 132.778 132.798 132.49 132.822C132.226 132.822 131.29 132.822 130.474 132.774C130.762 133.374 131.074 134.214 131.17 134.814C132.61 134.814 133.642 134.79 134.386 134.478C135.13 134.166 135.346 133.614 135.346 132.534V123.654H132.85ZM139.81 112.254C139.57 112.95 139.042 113.934 138.634 114.63L140.602 115.23C141.106 114.63 141.706 113.814 142.33 112.878L139.81 112.254ZM132.346 112.974C132.874 113.694 133.426 114.678 133.618 115.302L135.754 114.534C135.514 113.886 134.914 112.926 134.362 112.254L132.346 112.974ZM140.002 123.63C140.89 124.302 141.922 125.262 142.378 125.982L144.106 124.71C143.602 124.014 142.546 123.078 141.658 122.478L140.002 123.63ZM129.706 129.342L129.97 131.55C132.082 131.31 134.746 130.998 137.338 130.686L137.29 128.622C134.482 128.934 131.674 129.174 129.706 129.342ZM135.922 122.334C134.506 122.79 132.106 123.126 130.066 123.318C130.282 123.798 130.546 124.542 130.618 124.998C132.802 124.878 135.466 124.542 137.41 124.014L135.922 122.334ZM130.642 114.486V116.406H143.77V114.486H130.642ZM131.41 117.318V119.094H143.05V117.318H131.41ZM129.898 120.078V122.142H144.274V120.078H129.898ZM129.85 125.838V127.926H144.25V125.838H129.85ZM137.362 122.622C137.482 129.726 138.49 134.934 142.09 134.934C143.578 134.934 144.346 134.07 144.682 131.766C144.178 131.526 143.482 131.19 143.026 130.734C142.93 132.078 142.714 132.702 142.33 132.702C140.746 132.702 139.69 129.006 139.762 122.622H137.362ZM141.49 128.19C140.194 130.326 137.746 132.054 135.394 133.014C135.85 133.398 136.474 134.094 136.762 134.526C139.258 133.446 141.922 131.502 143.434 129.15L141.49 128.19ZM122.866 119.646V121.806H129.298V119.646H122.866ZM122.866 122.91V125.094H129.298V122.91H122.866ZM122.026 116.286V118.566H129.874V116.286H122.026ZM123.922 126.246V128.454H127.162V131.262H123.922V133.494H129.25V126.246H123.922ZM122.794 126.246V134.502H124.81V126.246H122.794ZM124.186 113.118C124.714 114.174 125.242 115.59 125.434 116.478L127.594 115.59C127.378 114.75 126.778 113.382 126.226 112.374L124.186 113.118ZM85.5066 172.502L87.6906 171.59C85.6746 168.086 84.7626 164.03 84.7626 160.094C84.7626 156.182 85.6746 152.126 87.6906 148.622L85.5066 147.686C83.2266 151.382 81.9066 155.318 81.9066 160.094C81.9066 164.894 83.2266 168.806 85.5066 172.502ZM96.4489 167.99C100.529 167.99 102.953 165.518 102.953 162.614C102.953 160.07 101.537 158.678 99.4009 157.79L97.0729 156.83C95.5609 156.23 94.2889 155.75 94.2889 154.478C94.2889 153.326 95.2729 152.63 96.8329 152.63C98.2969 152.63 99.4729 153.158 100.625 154.094L102.401 151.862C100.961 150.398 98.8969 149.582 96.8329 149.582C93.2569 149.582 90.6889 151.814 90.6889 154.718C90.6889 157.286 92.5129 158.75 94.2889 159.47L96.6649 160.478C98.2489 161.15 99.3289 161.582 99.3289 162.902C99.3289 164.126 98.3689 164.918 96.5209 164.918C94.9609 164.918 93.2569 164.15 92.0089 162.974L89.9689 165.422C91.6969 167.078 94.0489 167.99 96.4489 167.99ZM105.834 172.814H109.362V168.734L109.242 166.55C110.25 167.486 111.402 167.99 112.554 167.99C115.506 167.99 118.266 165.35 118.266 160.742C118.266 156.59 116.298 153.902 112.986 153.902C111.546 153.902 110.154 154.646 109.05 155.63H108.978L108.69 154.238H105.834V172.814ZM111.786 165.086C111.066 165.086 110.202 164.846 109.362 164.102V158.174C110.273 157.238 111.09 156.782 111.978 156.782C113.85 156.782 114.642 158.198 114.642 160.79C114.642 163.694 113.394 165.086 111.786 165.086ZM121.279 167.654H124.807V159.662C125.551 157.718 126.823 156.998 127.855 156.998C128.431 156.998 128.791 157.094 129.271 157.214L129.871 154.19C129.463 153.998 129.031 153.902 128.311 153.902C126.919 153.902 125.455 154.838 124.495 156.614H124.423L124.135 154.238H121.279V167.654ZM131.755 167.654H135.283V154.238H131.755V167.654ZM133.507 152.054C134.731 152.054 135.571 151.286 135.571 150.11C135.571 148.958 134.731 148.214 133.507 148.214C132.283 148.214 131.467 148.958 131.467 150.11C131.467 151.286 132.283 152.054 133.507 152.054ZM139.044 167.654H142.572V158.414C143.556 157.454 144.252 156.926 145.356 156.926C146.652 156.926 147.252 157.622 147.252 159.734V167.654H150.78V159.278C150.78 155.918 149.508 153.902 146.628 153.902C144.804 153.902 143.412 154.862 142.26 156.014H142.188L141.9 154.238H139.044V167.654ZM159.315 167.99C160.515 167.99 161.451 167.726 162.171 167.486L161.595 164.918C161.211 165.062 160.707 165.23 160.251 165.23C159.075 165.23 158.427 164.51 158.427 162.974V156.998H161.763V154.238H158.427V150.59H155.499L155.115 154.238L153.027 154.382V156.998H154.899V162.974C154.899 165.974 156.123 167.99 159.315 167.99ZM64.4379 202.654H67.9899V195.958H70.6059C74.3259 195.958 77.2779 194.23 77.2779 190.27C77.2779 186.19 74.3259 184.894 70.6059 184.894H64.4379V202.654ZM67.9899 193.15V187.726H70.2699C72.5739 187.726 73.8219 188.374 73.8219 190.27C73.8219 192.166 72.5739 193.15 70.2699 193.15H67.9899ZM74.0859 202.654H78.0459L72.4299 192.814L69.9579 195.046L74.0859 202.654ZM85.9668 202.99C87.6228 202.99 89.3028 202.438 90.6228 201.526L89.4468 199.342C88.4628 199.942 87.5028 200.278 86.4228 200.278C84.4308 200.278 82.9908 199.15 82.6788 196.942H90.9828C91.0548 196.606 91.1268 195.982 91.1268 195.31C91.1268 191.59 89.2308 188.902 85.5108 188.902C82.3428 188.902 79.2708 191.59 79.2708 195.958C79.2708 200.398 82.1988 202.99 85.9668 202.99ZM82.6308 194.59C82.9188 192.622 84.1668 191.614 85.5828 191.614C87.3108 191.614 88.1268 192.766 88.1268 194.59H82.6308ZM98.5537 202.99C99.7537 202.99 100.69 202.726 101.41 202.486L100.834 199.918C100.45 200.062 99.9457 200.23 99.4897 200.23C98.3137 200.23 97.6657 199.51 97.6657 197.974V191.998H101.002V189.238H97.6657V185.59H94.7377L94.3537 189.238L92.2657 189.382V191.998H94.1377V197.974C94.1377 200.974 95.3617 202.99 98.5537 202.99ZM103.759 202.654H107.287V194.662C108.031 192.718 109.303 191.998 110.335 191.998C110.911 191.998 111.271 192.094 111.751 192.214L112.351 189.19C111.943 188.998 111.511 188.902 110.791 188.902C109.399 188.902 107.935 189.838 106.975 191.614H106.903L106.615 189.238H103.759V202.654ZM119.453 202.99C122.813 202.99 125.885 200.398 125.885 195.958C125.885 191.494 122.813 188.902 119.453 188.902C116.069 188.902 112.997 191.494 112.997 195.958C112.997 200.398 116.069 202.99 119.453 202.99ZM119.453 200.134C117.605 200.134 116.597 198.478 116.597 195.958C116.597 193.414 117.605 191.782 119.453 191.782C121.277 191.782 122.285 193.414 122.285 195.958C122.285 198.478 121.277 200.134 119.453 200.134ZM132.466 202.99C135.946 202.99 137.794 201.118 137.794 198.742C137.794 196.27 135.85 195.358 134.074 194.686C132.634 194.182 131.41 193.798 131.41 192.838C131.41 192.046 131.962 191.518 133.186 191.518C134.17 191.518 135.13 191.998 136.066 192.67L137.674 190.558C136.57 189.694 135.034 188.902 133.09 188.902C130.018 188.902 128.098 190.606 128.098 192.982C128.098 195.262 129.994 196.27 131.698 196.942C133.09 197.47 134.506 197.95 134.506 198.934C134.506 199.774 133.882 200.374 132.538 200.374C131.29 200.374 130.162 199.822 128.938 198.886L127.354 201.118C128.674 202.222 130.666 202.99 132.466 202.99ZM140.509 207.814H144.037V203.734L143.917 201.55C144.925 202.486 146.077 202.99 147.229 202.99C150.181 202.99 152.941 200.35 152.941 195.742C152.941 191.59 150.973 188.902 147.661 188.902C146.221 188.902 144.829 189.646 143.725 190.63H143.653L143.365 189.238H140.509V207.814ZM146.461 200.086C145.741 200.086 144.877 199.846 144.037 199.102V193.174C144.949 192.238 145.765 191.782 146.653 191.782C148.525 191.782 149.317 193.198 149.317 195.79C149.317 198.694 148.069 200.086 146.461 200.086ZM161.811 202.99C163.467 202.99 165.147 202.438 166.467 201.526L165.291 199.342C164.307 199.942 163.347 200.278 162.267 200.278C160.275 200.278 158.835 199.15 158.523 196.942H166.827C166.899 196.606 166.971 195.982 166.971 195.31C166.971 191.59 165.075 188.902 161.355 188.902C158.187 188.902 155.115 191.59 155.115 195.958C155.115 200.398 158.043 202.99 161.811 202.99ZM158.475 194.59C158.763 192.622 160.011 191.614 161.427 191.614C163.155 191.614 163.971 192.766 163.971 194.59H158.475ZM175.588 202.99C177.076 202.99 178.732 202.486 180.004 201.382L178.612 199.054C177.868 199.654 176.956 200.134 175.972 200.134C174.052 200.134 172.66 198.478 172.66 195.958C172.66 193.414 174.028 191.782 176.116 191.782C176.836 191.782 177.484 192.07 178.156 192.646L179.812 190.39C178.828 189.526 177.58 188.902 175.9 188.902C172.252 188.902 169.06 191.494 169.06 195.958C169.06 200.398 171.892 202.99 175.588 202.99ZM101.097 237.99C102.297 237.99 103.233 237.726 103.953 237.486L103.377 234.918C102.993 235.062 102.489 235.23 102.033 235.23C100.857 235.23 100.209 234.51 100.209 232.974V226.998H103.545V224.238H100.209V220.59H97.2807L96.8967 224.238L94.8087 224.382V226.998H96.6807V232.974C96.6807 235.974 97.9047 237.99 101.097 237.99ZM106.302 237.654H109.83V224.238H106.302V237.654ZM108.054 222.054C109.278 222.054 110.118 221.286 110.118 220.11C110.118 218.958 109.278 218.214 108.054 218.214C106.83 218.214 106.014 218.958 106.014 220.11C106.014 221.286 106.83 222.054 108.054 222.054ZM116.615 237.654H120.695L125.183 224.238H121.775L119.807 230.934C119.447 232.254 119.087 233.622 118.727 234.99H118.607C118.247 233.622 117.887 232.254 117.527 230.934L115.583 224.238H112.007L116.615 237.654ZM132.947 237.99C134.603 237.99 136.283 237.438 137.603 236.526L136.427 234.342C135.443 234.942 134.483 235.278 133.403 235.278C131.411 235.278 129.971 234.15 129.659 231.942H137.963C138.035 231.606 138.107 230.982 138.107 230.31C138.107 226.59 136.211 223.902 132.491 223.902C129.323 223.902 126.251 226.59 126.251 230.958C126.251 235.398 129.179 237.99 132.947 237.99ZM129.611 229.59C129.899 227.622 131.147 226.614 132.563 226.614C134.291 226.614 135.107 227.766 135.107 229.59H129.611ZM142.573 242.502C144.829 238.806 146.149 234.894 146.149 230.094C146.149 225.318 144.829 221.382 142.573 217.686L140.365 218.622C142.381 222.126 143.317 226.182 143.317 230.094C143.317 234.03 142.381 238.086 140.365 241.59L142.573 242.502Z" fill="#333333"/>
</svg>
